<?xml version="1.0"?>
<svg xmlns="http://www.w3.org/2000/svg" viewBox="0 0 1080 1080" width="1080" height="1080">
  <title>Habit Forge — Instagram Post Template</title>
  <defs>
    <linearGradient id="bg2" x1="0" y1="0" x2="1" y2="1"><stop offset="0" stop-color="#11172A"></stop><stop offset="1" stop-color="#0B0F1A"></stop></linearGradient>
    <radialGradient id="sp" cx=".7" cy=".15"><stop offset="0" stop-color="#C9824A" stop-opacity=".25"></stop><stop offset="1" stop-color="#C9824A" stop-opacity="0"></stop></radialGradient>
    <pattern id="grid" width="60" height="60" patternUnits="userSpaceOnUse"><path d="M60 0 L0 0 0 60" stroke="#6B6DDF" stroke-opacity=".08" fill="none" stroke-width="1"></path></pattern>
  </defs>
  <rect width="1080" height="1080" fill="url(#bg2)"></rect>
  <rect width="1080" height="1080" fill="url(#grid)"></rect>
  <rect width="1080" height="1080" fill="url(#sp)"></rect>
  <g transform="translate(460 200)">
    <rect x="0" y="0" width="160" height="160" rx="36" fill="#6B6DDF"></rect>
    <g fill="#FFFFFF" transform="translate(0 0) scale(2.5)"><rect x="14" y="22" width="36" height="9" rx="2"></rect><path d="M14 22 Q8 22 8 28 L14 28 Z"></path><rect x="22" y="31" width="20" height="4"></rect><rect x="16" y="35" width="32" height="9" rx="2"></rect></g>
    <circle cx="115" cy="45" r="6" fill="#D99767"></circle>
  </g>
  <text x="540" y="500" text-anchor="middle" font-family="Sora, sans-serif" font-size="84" font-weight="700" letter-spacing="-2" fill="#FFFFFF">Habit<tspan fill="#C9824A">Forge</tspan></text>
  <text x="540" y="570" text-anchor="middle" font-family="Sora, sans-serif" font-size="28" font-weight="400" fill="#8893B3">Tempa harimu, setiap hari.</text>
  <text x="540" y="980" text-anchor="middle" font-family="Sora, sans-serif" font-size="22" font-weight="500" letter-spacing="4" fill="#C9824A">@HABITFORGE.APP</text>
</svg>