<svg xmlns="http://www.w3.org/2000/svg" width="1080" height="1920" viewBox="0 0 1080 1920">
  <defs>
    <radialGradient id="stb" cx=".5" cy=".25"><stop offset="0" stop-color="#1c2236"></stop><stop offset="1" stop-color="#0b0f1a"></stop></radialGradient>
  </defs>
  <rect width="1080" height="1920" fill="url(#stb)"></rect>
  <g opacity=".15" stroke="#6b6ddf" stroke-width="1" fill="none">
    <line x1="0" y1="0" x2="1080" y2="0"></line><line x1="0" y1="48" x2="1080" y2="48"></line><line x1="0" y1="96" x2="1080" y2="96"></line><line x1="0" y1="144" x2="1080" y2="144"></line><line x1="0" y1="192" x2="1080" y2="192"></line><line x1="0" y1="240" x2="1080" y2="240"></line><line x1="0" y1="288" x2="1080" y2="288"></line><line x1="0" y1="336" x2="1080" y2="336"></line><line x1="0" y1="384" x2="1080" y2="384"></line><line x1="0" y1="432" x2="1080" y2="432"></line><line x1="0" y1="480" x2="1080" y2="480"></line><line x1="0" y1="528" x2="1080" y2="528"></line><line x1="0" y1="576" x2="1080" y2="576"></line><line x1="0" y1="624" x2="1080" y2="624"></line><line x1="0" y1="672" x2="1080" y2="672"></line><line x1="0" y1="720" x2="1080" y2="720"></line><line x1="0" y1="768" x2="1080" y2="768"></line><line x1="0" y1="816" x2="1080" y2="816"></line><line x1="0" y1="864" x2="1080" y2="864"></line><line x1="0" y1="912" x2="1080" y2="912"></line><line x1="0" y1="960" x2="1080" y2="960"></line><line x1="0" y1="1008" x2="1080" y2="1008"></line><line x1="0" y1="1056" x2="1080" y2="1056"></line><line x1="0" y1="1104" x2="1080" y2="1104"></line><line x1="0" y1="1152" x2="1080" y2="1152"></line><line x1="0" y1="1200" x2="1080" y2="1200"></line><line x1="0" y1="1248" x2="1080" y2="1248"></line><line x1="0" y1="1296" x2="1080" y2="1296"></line><line x1="0" y1="1344" x2="1080" y2="1344"></line><line x1="0" y1="1392" x2="1080" y2="1392"></line><line x1="0" y1="1440" x2="1080" y2="1440"></line><line x1="0" y1="1488" x2="1080" y2="1488"></line><line x1="0" y1="1536" x2="1080" y2="1536"></line><line x1="0" y1="1584" x2="1080" y2="1584"></line><line x1="0" y1="1632" x2="1080" y2="1632"></line><line x1="0" y1="1680" x2="1080" y2="1680"></line><line x1="0" y1="1728" x2="1080" y2="1728"></line><line x1="0" y1="1776" x2="1080" y2="1776"></line><line x1="0" y1="1824" x2="1080" y2="1824"></line><line x1="0" y1="1872" x2="1080" y2="1872"></line>
    <line x1="0" y1="0" x2="0" y2="1920"></line><line x1="48" y1="0" x2="48" y2="1920"></line><line x1="96" y1="0" x2="96" y2="1920"></line><line x1="144" y1="0" x2="144" y2="1920"></line><line x1="192" y1="0" x2="192" y2="1920"></line><line x1="240" y1="0" x2="240" y2="1920"></line><line x1="288" y1="0" x2="288" y2="1920"></line><line x1="336" y1="0" x2="336" y2="1920"></line><line x1="384" y1="0" x2="384" y2="1920"></line><line x1="432" y1="0" x2="432" y2="1920"></line><line x1="480" y1="0" x2="480" y2="1920"></line><line x1="528" y1="0" x2="528" y2="1920"></line><line x1="576" y1="0" x2="576" y2="1920"></line><line x1="624" y1="0" x2="624" y2="1920"></line><line x1="672" y1="0" x2="672" y2="1920"></line><line x1="720" y1="0" x2="720" y2="1920"></line><line x1="768" y1="0" x2="768" y2="1920"></line><line x1="816" y1="0" x2="816" y2="1920"></line><line x1="864" y1="0" x2="864" y2="1920"></line><line x1="912" y1="0" x2="912" y2="1920"></line><line x1="960" y1="0" x2="960" y2="1920"></line><line x1="1008" y1="0" x2="1008" y2="1920"></line><line x1="1056" y1="0" x2="1056" y2="1920"></line>
  </g>
  <g transform="translate(440 600) scale(2)">
    <rect x="0" y="0" width="100" height="100" rx="22" fill="#6b6ddf"></rect>
    <g transform="translate(18 18) scale(1.05)">
  <g fill="#fff">
    <rect x="14" y="22" width="36" height="9" rx="2"></rect>
    <path d="M14 22 Q8 22 8 28 L14 28 Z"></path>
    <rect x="22" y="31" width="20" height="4"></rect>
    <rect x="16" y="35" width="32" height="9" rx="2"></rect>
  </g>
  <circle cx="46" cy="18" r="2.2" fill="#d99767"></circle></g>
  </g>
  <g font-family="Sora, sans-serif" fill="#e6e9f5" text-anchor="middle">
    <text x="540" y="980" font-size="72" font-weight="700" letter-spacing="-1">Habit Forge</text>
    <text x="540" y="1040" font-size="30" fill="#a8a9ef">Tempa harimu, setiap hari.</text>
  </g>
</svg>